<?xml version="1.0" standalone="no"?>
<!DOCTYPE svg PUBLIC "-//W3C//DTD SVG 20010904//EN"
 "http://www.w3.org/TR/2001/REC-SVG-20010904/DTD/svg10.dtd">
<svg version="1.0" xmlns="http://www.w3.org/2000/svg"
 width="32.000000pt" height="32.000000pt" viewBox="0 0 32.000000 32.000000"
 preserveAspectRatio="xMidYMid meet">

<g transform="translate(0.000000,32.000000) scale(0.100000,-0.100000)"
fill="#000000" stroke="none">
<path d="M17 302 c-14 -15 -17 -41 -17 -144 0 -156 1 -158 118 -158 76 0 83 2
98 25 16 25 16 59 -1 57 -5 0 -12 -11 -15 -24 -5 -21 -12 -23 -88 -26 l-82 -3
0 131 0 131 82 -3 c76 -3 83 -5 88 -26 3 -13 9 -24 15 -25 17 -3 17 33 1 58
-15 23 -22 25 -100 25 -68 0 -86 -3 -99 -18z"/>
<path d="M260 202 c0 -4 5 -13 12 -20 9 -9 -5 -12 -65 -12 -45 0 -77 -4 -77
-10 0 -6 32 -10 75 -10 73 0 75 -1 65 -20 -16 -31 15 -26 36 5 15 23 15 27 0
50 -15 23 -46 35 -46 17z"/>
</g>
</svg>
