<?xml version="1.0" standalone="no"?>
<!DOCTYPE svg PUBLIC "-//W3C//DTD SVG 20010904//EN"
 "http://www.w3.org/TR/2001/REC-SVG-20010904/DTD/svg10.dtd">
<svg version="1.0" xmlns="http://www.w3.org/2000/svg"
 width="32.000000pt" height="32.000000pt" viewBox="0 0 32.000000 32.000000"
 preserveAspectRatio="xMidYMid meet">

<g transform="translate(0.000000,32.000000) scale(0.100000,-0.100000)"
fill="#000000" stroke="none">
<path d="M95 306 c-101 -44 -125 -178 -46 -257 65 -65 157 -65 222 0 124 124
-15 327 -176 257z m133 -26 c39 -24 72 -75 72 -113 0 -15 -7 -44 -16 -65 -15
-34 -17 -35 -24 -15 -5 11 -19 29 -33 39 -21 17 -22 20 -10 45 27 55 -25 111
-82 89 -35 -13 -49 -54 -31 -91 13 -26 12 -29 -11 -44 -13 -9 -28 -26 -33 -38
-8 -21 -9 -20 -24 15 -21 50 -20 86 4 126 42 68 124 91 188 52z m-36 -47 c22
-20 23 -41 1 -65 -20 -22 -41 -23 -65 -1 -22 20 -23 41 -1 65 20 22 41 23 65
1z m29 -132 c16 -16 29 -34 29 -40 0 -16 -55 -41 -90 -41 -35 0 -90 25 -90 41
0 24 59 69 90 69 22 0 41 -9 61 -29z"/>
</g>
</svg>
